# xmcd
#
# Track frame offsets: 
#        150
#        14455
#        30496
#        45916
#        59977
#        71574
#        91202
#        106200
#        124669
#        141244
#        156861
#        181594
#
# Disc length: 2627 seconds
#
# Revision: 0
# Processed by: cddbd v1.5.2PL0 Copyright (c) Steve Scherf et al.
# Submitted via: ExactAudioCopyFreeDBPlugin 1.0
#
DISCID=9a0a410c
DTITLE=Rockstah - Pubertät
DYEAR=2014
DGENRE=Rap Rock
TTITLE0=Pubertät
TTITLE1=Echt erkennt Echt
TTITLE2=Astronaut
TTITLE3=V.U.P. Lounge
TTITLE4=LOL
TTITLE5=Die kleinste Sekte der Welt
TTITLE6=Hotel Mama
TTITLE7=Auftrag: Verschwende deine Jugend
TTITLE8=König Außenseiter
TTITLE9=Die brennende Stadt (Ein Weltuntergang Pt. 1)
TTITLE10=Der Wal (Ein Weltuntergang Pt. 2)
TTITLE11=Superheldenanzug
EXTD=
EXTT0=
EXTT1=
EXTT2=
EXTT3=
EXTT4=
EXTT5=
EXTT6=
EXTT7=
EXTT8=
EXTT9=
EXTT10=
EXTT11=
PLAYORDER=
